<svg xmlns="http://www.w3.org/2000/svg" viewBox="0 0 32 32">
<defs>
    <style>.a015720b-cdc7-4fd9-a0f4-555111218{fill:#B2B2B2;}</style>
</defs>
<g id="bec49ba0-9ace-4d4b-986c-6f12008b7429" data-name="Ebene 2" class="a015720b-cdc7-4fd9-a0f4-555111218">
<g id="fc88f86e-27db-4afd-bafa-a9c4dbd8a61d" data-name="Capa 1"><path d="M22.83,7V3.81a.22.22,0,0,0,0-.08C22.61,1.31,16.81,0,11.41,0S.22,1.31,0,3.73a.19.19,0,0,0,0,.08V7a.35.35,0,0,0,.11.26L8.41,14V25.59a.35.35,0,0,0,.09.25.24.24,0,0,0,.15.06h.07l5.53-2.19a.31.31,0,0,0,.17-.3V14l8.3-6.75A.35.35,0,0,0,22.83,7ZM20.48,2.66A22.18,22.18,0,0,1,18,3.29l-1.15.18a43.87,43.87,0,0,1-4.61.23c-5.61,0-8.55-.87-8.55-1.33S6.62,1,12.23,1s8.56.87,8.56,1.33C20.79,2.43,20.7,2.54,20.48,2.66Z"/><path d="M27.47,26l1.7-1.71V32H16V18.83H28.57l-1.71,1.7H17.71v9.76h9.76Zm2.66-7.65-6.19,6.1L21.3,21.75a1.1,1.1,0,0,0-1.56,0,1.12,1.12,0,0,0,0,1.57l3.42,3.42a1.09,1.09,0,0,0,.78.33,1,1,0,0,0,.78-.33l7-6.94a1.1,1.1,0,0,0,0-1.56,1.12,1.12,0,0,0-1.57,0Z"/></g></g></svg>