<svg xmlns="http://www.w3.org/2000/svg" viewBox="0 0 31.95 32">
<g fill="#B2B2B2" id="f339a647-5c7f-4f5e-90ad-f9d95bdf003e" data-name="Ebene 2">
    <g id="e561b534-be5c-45a5-9e93-98fc183d4e8c" data-name="Ebene 1">
    <g id="b58771a0-ac03-4eea-966d-6a1ba7b9c9d2" data-name="b7dccd94-54e0-447e-8205-e2f83939bf65"><g id="a3f476c0-4675-4fbe-9fde-1672cdd693c8" data-name="fc88f86e-27db-4afd-bafa-a9c4dbd8a61d"><path d="M27.82,17.42,32,13.27V32H0V0H24.19L19.38,4.13H4.15V27.85H27.82ZM28.14,1,15.81,14.84,10.55,8.71a2,2,0,0,0-3.09,0h0a2.78,2.78,0,0,0,0,3.56l6.81,7.78a2,2,0,0,0,1.55.75,1.88,1.88,0,0,0,1.55-.75L31.3,4.27a2.75,2.75,0,0,0,0-3.53h0a2,2,0,0,0-3.12,0Z"/>
</g></g></g></g></svg>