<svg xmlns="http://www.w3.org/2000/svg" xmlns:xlink="http://www.w3.org/1999/xlink" viewBox="0 0 276.71 250.8"><defs><style>.e1fd5075-2b70-44f1-8a62-cb6bf60a014c{fill:none;}.ebd10622-7c83-43f5-b42d-fe04d4bc0d3d{clip-path:url(#f9878a47-b30e-4712-a37e-2137be045e0f);}.ad23469b-3119-476d-8979-5b200e097e2c{fill:#00549d;}.fb7ef68f-d90d-40d7-919b-59316a1a3b68{clip-path:url(#a6ea7702-21a2-4821-aece-20d053725f49);}.a0d4b731-fea2-457f-b02d-52eb7346cb2f{fill:#e1e1e1;}.a832d50c-1afd-4de6-a286-c78b4d61bad4{fill:#f19598;}.e027e22d-2c6f-43f3-94ed-1d784d7de520{fill:#e84f53;}.b653bcb5-1aa0-4f63-ad81-efd347d0026c,.fdc344bf-13ac-4d04-b729-ec4a9b03e476{fill:#fff;}.aa8ceaae-6e9c-43bd-850b-b87cdccabe06{fill:#66c5ce;}.b0737cd2-6d3c-40ab-b3c6-931a664a43de{fill:#99dde1;}.b534e990-f645-4627-b7ff-ca0fa2e77773{fill:#009fae;}.fdc344bf-13ac-4d04-b729-ec4a9b03e476{opacity:0.7;}.b1b6c382-45a1-4b35-a96c-82c975e63699{clip-path:url(#b382823a-6ded-4d9a-9960-db7f0a79f772);}</style><clipPath id="f9878a47-b30e-4712-a37e-2137be045e0f" transform="translate(0 0)"><rect class="e1fd5075-2b70-44f1-8a62-cb6bf60a014c" width="276.1" height="250.8"/></clipPath><clipPath id="a6ea7702-21a2-4821-aece-20d053725f49" transform="translate(0 0)"><path class="e1fd5075-2b70-44f1-8a62-cb6bf60a014c" d="M193.32,154.39c-28.14,26.35-59.27,33.61-87.63,14.17C85.53,154.74,79,118.71,107.1,92.36S172,58,192,68.49C219.88,83.09,221.46,128,193.32,154.39Z"/></clipPath><clipPath id="b382823a-6ded-4d9a-9960-db7f0a79f772" transform="translate(0 0)"><path class="e1fd5075-2b70-44f1-8a62-cb6bf60a014c" d="M230.48,123.23c2.55,23-15.78,50-46.2,65.63-14.23,7.33-29.21,11.13-42.38,11.45v14.17H286.76V123.23Z"/></clipPath></defs><g id="b818d8c9-5389-4baa-bbf1-596671187951" data-name="Ebene 2"><g id="a10d8c1b-27c4-4af9-86b0-6ef780f7ce5c" data-name="Ebene 1"><g class="ebd10622-7c83-43f5-b42d-fe04d4bc0d3d"><g class="ebd10622-7c83-43f5-b42d-fe04d4bc0d3d"><path class="ad23469b-3119-476d-8979-5b200e097e2c" d="M0,0H128c65,0,129.6,15.2,129.6,78.4,0,37.9-32.1,66.2-66.7,67.4l7.5,9.3c4.4,6.1,5.8,6.9,11.5,14.2l66.2,81.5H163.4L98.1,158.6h-4l.2,92.2H0ZM95.5,111.1l28.6.2c15,.2,32.8-11.3,30.8-29.8-2-19.2-16.9-26.9-51.7-26.1h-8Z" transform="translate(0 0)"/><g class="fb7ef68f-d90d-40d7-919b-59316a1a3b68"><polygon class="a0d4b731-fea2-457f-b02d-52eb7346cb2f" points="102.39 175.62 130.61 181.64 131.09 80.9 102.39 80.9 102.39 175.62"/><polygon class="a0d4b731-fea2-457f-b02d-52eb7346cb2f" points="199.29 76.75 169.66 71.07 168.72 175.44 199.76 175.44 199.29 76.75"/><polygon class="a0d4b731-fea2-457f-b02d-52eb7346cb2f" points="164.48 71.67 135.79 76.84 135.32 181.26 164.01 180.32 164.48 71.67"/><rect class="a0d4b731-fea2-457f-b02d-52eb7346cb2f" x="203.98" y="80.9" width="27.28" height="94.54"/><rect class="a0d4b731-fea2-457f-b02d-52eb7346cb2f" x="69" y="80.9" width="29.63" height="94.54"/><polyline class="a832d50c-1afd-4de6-a286-c78b4d61bad4" points="232.03 128.02 202.58 107.73 163.72 117.42 135.17 154.2 103.1 133.91 69.5 172.09 69.06 166.85 103.19 125.93 133.62 145.89 163.07 112.19 202.66 100.74 232.44 120.37"/><circle class="e027e22d-2c6f-43f3-94ed-1d784d7de520" cx="134.3" cy="150.71" r="8.29" transform="translate(-3.24 2.95) rotate(-1.24)"/><path class="b653bcb5-1aa0-4f63-ad81-efd347d0026c" d="M134.3,160.41a9.7,9.7,0,1,1,9.7-9.7A9.72,9.72,0,0,1,134.3,160.41Zm0-16.58a6.88,6.88,0,1,0,6.88,6.88A6.88,6.88,0,0,0,134.3,143.83Z" transform="translate(0 0)"/><circle class="e027e22d-2c6f-43f3-94ed-1d784d7de520" cx="101.57" cy="127.8" r="8.29" transform="translate(-2.88 2.34) rotate(-1.3)"/><path class="b653bcb5-1aa0-4f63-ad81-efd347d0026c" d="M101.57,137.5a9.7,9.7,0,1,1,9.7-9.7A9.71,9.71,0,0,1,101.57,137.5Zm0-16.58a6.88,6.88,0,1,0,6.88,6.88A6.89,6.89,0,0,0,101.57,120.92Z" transform="translate(0 0)"/><path class="e027e22d-2c6f-43f3-94ed-1d784d7de520" d="M175.31,112.09a8.29,8.29,0,1,0-8.29,8.29A8.29,8.29,0,0,0,175.31,112.09Z" transform="translate(0 0)"/><path class="b653bcb5-1aa0-4f63-ad81-efd347d0026c" d="M167,121.79a9.7,9.7,0,1,1,9.7-9.7A9.71,9.71,0,0,1,167,121.79Zm0-16.58a6.88,6.88,0,1,0,6.88,6.88A6.89,6.89,0,0,0,167,105.21Z" transform="translate(0 0)"/><path class="e027e22d-2c6f-43f3-94ed-1d784d7de520" d="M210,104.24a8.29,8.29,0,1,0-8.29,8.29A8.29,8.29,0,0,0,210,104.24Z" transform="translate(0 0)"/><path class="b653bcb5-1aa0-4f63-ad81-efd347d0026c" d="M201.71,113.94a9.7,9.7,0,1,1,9.7-9.7A9.71,9.71,0,0,1,201.71,113.94Zm0-16.58a6.88,6.88,0,1,0,6.88,6.88A6.89,6.89,0,0,0,201.71,97.36Z" transform="translate(0 0)"/></g><path class="aa8ceaae-6e9c-43bd-850b-b87cdccabe06" d="M204.83,72.94a71.74,71.74,0,0,0-23.49-8.35,59.24,59.24,0,0,1,14.73,5.6c27.63,15.08,29.47,59.55,1.33,85.9S135.46,189,105.94,171.38c-27.15-16.21-28.79-56.14-.65-82.49q3.38-3.15,6.91-5.93A110.89,110.89,0,0,0,102.55,91c-31,29-27.71,74.54,3.66,94,34.1,21.12,72.2,14.84,103.18-14.17S236.71,91.1,204.83,72.94Z" transform="translate(0 0)"/><path class="b0737cd2-6d3c-40ab-b3c6-931a664a43de" d="M113.73,98.68c27.1-25.61,62.31-32.21,87.7-18.51a36.67,36.67,0,0,1,7.32,5.2,37.57,37.57,0,0,0-13.27-12.08c-25.39-13.7-60.61-7.1-87.7,18.51-24.43,23.09-25.39,56.73-6,74.53C88.9,147.66,92.17,119.06,113.73,98.68Z" transform="translate(0 0)"/><path class="b534e990-f645-4627-b7ff-ca0fa2e77773" d="M199.75,67c-28.68-15.58-68.69-8.14-99.67,20.87s-29.34,72.81.39,90.48c32.32,19.21,69.43,11.88,100.41-17.14S230,83.41,199.75,67Zm-3.37,89.11c-28.14,26.35-61.94,32.91-91.46,15.29-27.15-16.21-28.79-56.14-.65-82.49s64.59-33,90.78-18.7C222.68,85.27,224.52,129.74,196.38,156.09Z" transform="translate(0 0)"/><polygon class="aa8ceaae-6e9c-43bd-850b-b87cdccabe06" points="91.72 188.06 99.37 179.9 106.21 184.99 96.31 193.67 91.72 188.06"/><path class="b534e990-f645-4627-b7ff-ca0fa2e77773" d="M60.88,248.5l47.64-49.79c-6.14-12.23-21.39-16.26-21.39-16.26l-45,47.65C47.88,233.26,57.06,239.46,60.88,248.5Z" transform="translate(0 0)"/><path class="b534e990-f645-4627-b7ff-ca0fa2e77773" d="M40.9,231.51C43,245.71,59.64,249.8,59.64,249.8l.58-.61A46.7,46.7,0,0,0,40.9,231.51Z" transform="translate(0 0)"/><path class="fdc344bf-13ac-4d04-b729-ec4a9b03e476" d="M199.79,124.79c-7.11,18.27-21.37,31.62-39,39.78-4.13,1.91-18.51,4.33-11.11-3.49,4.72-5,9.86-9.43,14.25-14.8a178.3,178.3,0,0,0,13-18.84c2.28-3.67,4.68-7.22,7.08-10.75,2.9-4.27,5.2-9.33,7.75-13.77,1.9-3.31,2.74-10.35,7.57-10.87,3.25-.35,3.52,8.17,3.71,9.87A47.78,47.78,0,0,1,199.79,124.79Z" transform="translate(0 0)"/><g class="b1b6c382-45a1-4b35-a96c-82c975e63699"><rect class="a0d4b731-fea2-457f-b02d-52eb7346cb2f" x="183.29" y="136.87" width="20.7" height="68.2"/><rect class="a0d4b731-fea2-457f-b02d-52eb7346cb2f" x="230.79" y="136.87" width="22.58" height="68.2"/><rect class="a0d4b731-fea2-457f-b02d-52eb7346cb2f" x="206.81" y="136.87" width="21.16" height="68.2"/><rect class="a0d4b731-fea2-457f-b02d-52eb7346cb2f" x="256.19" y="136.87" width="19.75" height="68.2"/><rect class="a0d4b731-fea2-457f-b02d-52eb7346cb2f" x="159.3" y="136.87" width="21.17" height="68.2"/><polyline class="a832d50c-1afd-4de6-a286-c78b4d61bad4" points="276.42 170.91 255.26 156.33 227.33 163.3 206.81 189.72 183.76 175.15 158.21 194.59 157.9 190.82 183.83 169.41 205.7 183.76 226.86 159.54 255.31 151.31 276.71 165.41"/><path class="e027e22d-2c6f-43f3-94ed-1d784d7de520" d="M212.14,187.22a6,6,0,1,0-6,5.95A6,6,0,0,0,212.14,187.22Z" transform="translate(0 0)"/><path class="b653bcb5-1aa0-4f63-ad81-efd347d0026c" d="M206.18,194.11a6.9,6.9,0,1,1,6.9-6.89A6.9,6.9,0,0,1,206.18,194.11Zm0-11.91a5,5,0,1,0,5,5A5,5,0,0,0,206.18,182.2Z" transform="translate(0 0)"/><path class="e027e22d-2c6f-43f3-94ed-1d784d7de520" d="M188.63,170.75a6,6,0,1,0-6,6A6,6,0,0,0,188.63,170.75Z" transform="translate(0 0)"/><path class="b653bcb5-1aa0-4f63-ad81-efd347d0026c" d="M182.67,177.65a6.9,6.9,0,1,1,6.9-6.9A6.9,6.9,0,0,1,182.67,177.65Zm0-11.91a5,5,0,1,0,5,5A5,5,0,0,0,182.67,165.74Z" transform="translate(0 0)"/><path class="e027e22d-2c6f-43f3-94ed-1d784d7de520" d="M235.66,159.47a6,6,0,1,0-6,5.95A6,6,0,0,0,235.66,159.47Z" transform="translate(0 0)"/><path class="b653bcb5-1aa0-4f63-ad81-efd347d0026c" d="M229.7,166.37a6.9,6.9,0,1,1,6.9-6.9A6.91,6.91,0,0,1,229.7,166.37Zm0-11.92a5,5,0,1,0,5,5A5,5,0,0,0,229.7,154.45Z" transform="translate(0 0)"/><path class="e027e22d-2c6f-43f3-94ed-1d784d7de520" d="M260.59,153.82a6,6,0,1,0-6,6A6,6,0,0,0,260.59,153.82Z" transform="translate(0 0)"/><path class="b653bcb5-1aa0-4f63-ad81-efd347d0026c" d="M254.63,160.72a6.9,6.9,0,1,1,6.9-6.9A6.91,6.91,0,0,1,254.63,160.72Zm0-11.92a5,5,0,1,0,5,5A5,5,0,0,0,254.63,148.8Z" transform="translate(0 0)"/></g></g></g></g></g></svg>