<svg xmlns="http://www.w3.org/2000/svg" viewBox="0 0 64 64"><defs><style>.b6ca5bf5-22cc-476f-ba56-21c9239222d7{fill:#b2b2b2;}</style></defs><g id="b835f892-7725-4ba0-87e6-f6826cd74fb7" data-name="Ebene 2"><g id="eaf9973a-44ba-4427-84db-97600e364fb0" data-name="Ebene 1"><g id="a0397f69-480c-4ee9-a80d-5690e7196965" data-name="b9620a00-1030-479b-b88e-24fec432cf99"><g id="f1129b2a-9167-41fa-8e75-15de7ae42fe0" data-name="b971cd97-eb53-4d19-9689-e83513fdf6cd"><path class="b6ca5bf5-22cc-476f-ba56-21c9239222d7" d="M0,0H16.74V8.85H0Z"/><path class="b6ca5bf5-22cc-476f-ba56-21c9239222d7" d="M23.42,8.89V.13H40.23V8.89Z"/><path class="b6ca5bf5-22cc-476f-ba56-21c9239222d7" d="M64,8.92H47.27V.07H64Z"/><path class="b6ca5bf5-22cc-476f-ba56-21c9239222d7" d="M29,18.11v8.76H17.87V18.11Z"/><path class="b6ca5bf5-22cc-476f-ba56-21c9239222d7" d="M52.07,18.05v8.79H41.46V18.05Z"/><path class="b6ca5bf5-22cc-476f-ba56-21c9239222d7" d="M5.94,26.9H0V18.09H5.94Z"/><path class="b6ca5bf5-22cc-476f-ba56-21c9239222d7" d="M58.6,45.49H53.18V36.08H58.6Z"/><path class="b6ca5bf5-22cc-476f-ba56-21c9239222d7" d="M35.27,54.56h5.4V64h-5.4Z"/><path class="b6ca5bf5-22cc-476f-ba56-21c9239222d7" d="M7.09,36H12v9.46H7.09Z"/><path class="b6ca5bf5-22cc-476f-ba56-21c9239222d7" d="M35.16,36.06v9.3h-5v-9.3Z"/><path class="b6ca5bf5-22cc-476f-ba56-21c9239222d7" d="M17.15,64h-5V54.59h5Z"/><path class="b6ca5bf5-22cc-476f-ba56-21c9239222d7" d="M64,64H59V54.59h5Z"/></g></g></g></g></svg>