<svg version="1.1" id="Ebene_1" xmlns="http://www.w3.org/2000/svg" xmlns:xlink="http://www.w3.org/1999/xlink" x="0px" y="0px"
	 viewBox="0 0 29.2 32" style="enable-background:new 0 0 29.2 32;" xml:space="preserve">
<g fill="#007eec" id="f0e203d0-31f7-4d6e-aa7c-9c1d2c02c76e">
	<g id="e8040384-1a18-4f8d-9764-e0878217c514">
		<path d="M22.8,7V3.8c0,0,0-0.1,0-0.1C22.6,1.3,16.8,0,11.4,0S0.2,1.3,0,3.7c0,0,0,0.1,0,0.1V7c0,0.1,0,0.2,0.1,0.3L8.4,14v11.6
			c0,0.1,0,0.2,0.1,0.3c0,0,0.1,0.1,0.1,0.1h0.1l5.5-2.2c0.1-0.1,0.2-0.2,0.2-0.3V14l8.3-6.8C22.8,7.2,22.8,7.1,22.8,7z M20.5,2.7
			c-0.8,0.3-1.6,0.5-2.5,0.6l-1.1,0.2c-1.5,0.2-3.1,0.2-4.6,0.2c-5.6,0-8.6-0.9-8.6-1.3S6.6,1,12.2,1s8.6,0.9,8.6,1.3
			C20.8,2.4,20.7,2.5,20.5,2.7z"/>
		<path d="M27.5,20.5h1.7V32H16V18.8h13.2v1.7H17.7v9.8h9.8V20.5z"/>
	</g>
</g>
</svg>
