<svg xmlns="http://www.w3.org/2000/svg" viewBox="0 0 64 64"><defs><style>.ad6da60a-e58b-4777-8b73-cb0935e86cdc{fill:#7f7f7f;}.bd0dfdd5-ec2f-4418-8aeb-a2fd37e30f6d{fill:#b2b2b2;}</style></defs><g id="f88f4f1c-f463-4791-a4f4-677f9a3161d6" data-name="Ebene 2"><g id="b7fcc6f6-cf27-4863-9afd-a7281062c1fe" data-name="Ebene 1"><g id="ab333bc7-9731-450a-a863-2b09d24b4244" data-name="ae41c1e9-8243-4270-8acb-8153224a9a45"><g id="f72ffbd0-0249-4805-8b6c-3499d7d18be2" data-name="b92ae513-af34-4103-8f65-291156e61962"><path class="ad6da60a-e58b-4777-8b73-cb0935e86cdc" d="M0,0H16.74V8.85H0Z"/><path class="bd0dfdd5-ec2f-4418-8aeb-a2fd37e30f6d" d="M23.42,8.89V.13H40.23V8.89Z"/><path class="bd0dfdd5-ec2f-4418-8aeb-a2fd37e30f6d" d="M64,8.92H47.27V.07H64Z"/><path class="ad6da60a-e58b-4777-8b73-cb0935e86cdc" d="M29,18.11v8.76H17.87V18.11Z"/><path class="bd0dfdd5-ec2f-4418-8aeb-a2fd37e30f6d" d="M52.07,18.05v8.79H41.46V18.05Z"/><path class="bd0dfdd5-ec2f-4418-8aeb-a2fd37e30f6d" d="M5.94,26.9H0V18.09H5.94Z"/><path class="bd0dfdd5-ec2f-4418-8aeb-a2fd37e30f6d" d="M58.6,45.49H53.18V36.08H58.6Z"/><path class="ad6da60a-e58b-4777-8b73-cb0935e86cdc" d="M35.27,54.56h5.4V64h-5.4Z"/><path class="bd0dfdd5-ec2f-4418-8aeb-a2fd37e30f6d" d="M7.09,36H12v9.46H7.09Z"/><path class="ad6da60a-e58b-4777-8b73-cb0935e86cdc" d="M35.16,36.06v9.3h-5v-9.3Z"/><path class="bd0dfdd5-ec2f-4418-8aeb-a2fd37e30f6d" d="M17.15,64h-5V54.59h5Z"/><path class="bd0dfdd5-ec2f-4418-8aeb-a2fd37e30f6d" d="M64,64H59V54.59h5Z"/></g></g></g></g></svg>