<?xml version="1.0" encoding="utf-8"?>
<!-- Generator: Adobe Illustrator 24.2.2, SVG Export Plug-In . SVG Version: 6.00 Build 0)  -->
<svg version="1.1" id="Ebene_1" xmlns="http://www.w3.org/2000/svg" xmlns:xlink="http://www.w3.org/1999/xlink" x="0px" y="0px"
	 viewBox="0 0 276 250.8" style="enable-background:new 0 0 276 250.8;" xml:space="preserve">
<style type="text/css">
	.st0{clip-path:url(#SVGID_2_);}
	.st1{fill:#00549B;}
	.st2{fill:#FFFFFF;stroke:#FFFFFF;stroke-width:15;stroke-miterlimit:10;}
	.st3{fill:#494949;stroke:#FFFFFF;stroke-width:15;stroke-miterlimit:10;}
	.st4{fill:#FFFFFF;stroke:#494949;stroke-width:14;stroke-miterlimit:10;}
	.st5{fill:#494949;stroke:#494949;stroke-miterlimit:10;}
	.st6{fill:none;stroke:#494949;stroke-width:2;stroke-miterlimit:10;}
	.st7{fill:#777777;}
	.st8{fill:none;}
	.st9{fill:#606060;}
	.st10{fill:#CF103F;}
</style>
<g id="e5e4ed0f-45d0-4d4e-a854-8cf6ceaf56d9">
	<g id="e6ff3ac0-e4dd-45fd-afe2-eafb3c8a4b07">
		<g id="f61759d6-ff85-4fa9-ac04-ea293058f82e">
			<g id="abb532b6-e789-4768-94a5-f8c419e482fc">
				<g id="a843e8ea-1cc0-4848-9e19-59f75866c559">
					<g id="af742d4d-6f66-4d59-a668-995e2ddc2788">
						<g>
							<defs>
								<rect id="SVGID_1_" width="276" height="250.8"/>
							</defs>
							<clipPath id="SVGID_2_">
								<use xlink:href="#SVGID_1_"  style="overflow:visible;"/>
							</clipPath>
							<g class="st0">
								<path class="st1" d="M0,0h128c65.1,0,129.6,15.2,129.6,78.4c0,37.9-32.1,66.2-66.7,67.4l7.5,9.3c4.5,6.1,5.8,6.9,11.5,14.2
									l66.1,81.5H163.4l-65.3-92.2h-4l0.2,92.2H0V0z M95.4,111.1l28.6,0.2c15,0.2,32.8-11.3,30.8-29.8
									c-2-19.2-16.9-26.9-51.7-26.1h-8L95.4,111.1z"/>
							</g>
						</g>
						<g>
							<path class="st2" d="M260.7,148.7L234,133l18.3,2.6L209,96l-26.6,41.8l-4.1,24.6l-4-24.6L147.8,96l-43.3,39.6l18.4-2.6
								l-26.7,15.6l27.7,13.1H111l32.4,18.9l9.2,33.2l21.3,12.3l4.7-4.2h-2l-9.3-13.3l1.8-3.1h19l1.8,3.1l-9.3,13.3h-2l4.7,4.2
								l21.3-12.3l9.2-33.2l32.4-18.9h-12.8L260.7,148.7z"/>
							<polygon class="st3" points="144.5,90.2 212.3,90.2 178.5,137 							"/>
							<polygon class="st2" points="212.3,83.5 234.1,55.2 235.5,107.1 							"/>
							<path class="st2" d="M167.1,208.8l1.8-3.1h9.5v-43.4l-4.1-24.6L147.8,96l-43.3,39.6l18.4-2.6l-26.7,15.6l27.7,13.1H111
								l32.4,18.9l9.2,33.2l21.3,12.3l4.7-4.2h-2L167.1,208.8z"/>
							<polygon class="st2" points="122.6,55.2 121.3,107.1 144.5,83.5 							"/>
						</g>
						<g>
							<path class="st4" d="M260.6,148.6L233.9,133l18.3,2.6l-43.4-39.7l-26.6,41.8l-4.1,24.6l-4-24.6l-26.6-41.8l-43.3,39.6
								l18.4-2.6L96,148.6l27.7,13.1h-12.8l32.4,18.9l9.2,33.2l21.3,12.3l4.7-4.2h-2l-9.3-13.3l1.8-3.1h19l1.8,3.1l-9.3,13.3h-2
								l4.7,4.2l21.3-12.3l9.2-33.2l32.4-18.9h-12.8L260.6,148.6z"/>
							<polygon class="st5" points="144.4,83.5 212.2,83.5 178.4,130.3 							"/>
							<polygon class="st4" points="212.2,83.5 234.1,55.2 235.4,107.1 							"/>
							<path class="st4" d="M167,208.8l1.8-3.1h9.5v-43.4l-4.1-24.6l-26.5-41.8l-43.3,39.6l18.4-2.6L96,148.6l27.7,13.1h-12.8
								l32.4,18.9l9.2,33.2l21.3,12.3l4.7-4.2h-2L167,208.8z"/>
							<polygon class="st4" points="122.6,55.2 121.2,107.1 144.4,83.5 							"/>
							<path class="st6" d="M188,158.6l9.8-8.9l7.9,0.9l9.3-10.9c0,0-15.7,3.2-16.1,3.4S188,158.6,188,158.6z"/>
							<path class="st6" d="M157.9,143.1c-0.4-0.1-16.1-3.4-16.1-3.4l9.2,10.8l7.9-0.9l9.8,8.9C168.8,158.6,158.3,143.3,157.9,143.1
								z"/>
							<path class="st7" d="M260.6,148.6L233.8,133l18.4,2.6l-43.4-39.7l-26.6,41.8l-4.1,24.6l-4-24.6l-26.6-41.8l-43.3,39.6
								l18.3-2.6l-26.7,15.6l27.7,13.1h-12.8l32.4,18.9l9.2,33.2l21.3,12.3l4.7-4.2h-2l-9.3-13.3l1.8-3.1h19l1.8,3.1l-9.2,13.3h-2
								l4.7,4.2l21.3-12.3l9.2-33.2l32.4-18.9H233L260.6,148.6z M158.6,149.7l-7.9,0.9l-9.2-10.9c0,0,15.7,3.2,16.1,3.4
								s10.9,15.5,10.9,15.5L158.6,149.7z M205.7,150.6l-7.9-0.9l-9.8,8.9c0,0,10.4-15.3,10.9-15.5s16.1-3.4,16.1-3.4L205.7,150.6z"
								/>
							<polygon class="st7" points="212.1,83.5 234,55.2 235.3,107.1 							"/>
							<path class="st8" d="M188,158.6l9.8-8.9l7.9,0.9l9.3-10.9c0,0-15.7,3.2-16.1,3.4S188,158.6,188,158.6z"/>
							<path class="st9" d="M166.9,208.8l1.8-3.1h9.5v-43.4l-4.1-24.6l-26.6-41.8l-43.3,39.6l18.3-2.6l-26.7,15.6l27.7,13.1h-12.8
								l32.4,18.9l9.2,33.2l21.3,12.3l4.7-4.2h-2L166.9,208.8z M150.7,150.6l-9.2-10.9c0,0,15.7,3.2,16.1,3.4s10.9,15.5,10.9,15.5
								l-9.8-8.9L150.7,150.6z"/>
							<polygon class="st9" points="122.4,55.2 121.1,107.1 144.3,83.5 							"/>
							<path class="st10" d="M153.8,144.3c-0.1,0-4.2-1-4.2-1l2.4,3.2l2.1-0.3l2.6,2.6C156.6,148.8,153.9,144.4,153.8,144.3z"/>
						</g>
					</g>
				</g>
			</g>
		</g>
	</g>
</g>
</svg>
