<svg xmlns="http://www.w3.org/2000/svg" xmlns:xlink="http://www.w3.org/1999/xlink" viewBox="0 0 276.68 250.8"><defs><style>.e8161e78-dcfa-4db2-b3a9-9cf402730300,.fc91c3b7-0727-4f78-9cc6-a57a306e8d42{fill:none;}.e7e48e1c-c9b7-44ca-9c16-2821dd03c7d3{clip-path:url(#ee81ad2b-6961-4731-8520-c27413f771d1);}.baec8161-cf6b-43f2-913e-d04dde0ff4cf{fill:#00549b;}.b45d0cba-a50e-4bbe-9cc2-acad20209410,.eb541c26-addc-444d-b2b8-97c5cbc63b81{fill:#fff;}.a559781a-906a-4995-895b-2afd6942a76a,.eb541c26-addc-444d-b2b8-97c5cbc63b81{stroke:#fff;stroke-width:15px;}.a559781a-906a-4995-895b-2afd6942a76a,.b45d0cba-a50e-4bbe-9cc2-acad20209410,.e7fa9458-bb38-4aad-ba6b-6c1f52b78e84,.eb541c26-addc-444d-b2b8-97c5cbc63b81,.fc91c3b7-0727-4f78-9cc6-a57a306e8d42{stroke-miterlimit:10;}.a559781a-906a-4995-895b-2afd6942a76a,.e7fa9458-bb38-4aad-ba6b-6c1f52b78e84{fill:#494949;}.b45d0cba-a50e-4bbe-9cc2-acad20209410,.e7fa9458-bb38-4aad-ba6b-6c1f52b78e84,.fc91c3b7-0727-4f78-9cc6-a57a306e8d42{stroke:#494949;}.b45d0cba-a50e-4bbe-9cc2-acad20209410{stroke-width:14px;}.fc91c3b7-0727-4f78-9cc6-a57a306e8d42{stroke-width:2px;}.e8696a18-9d24-4a92-95c6-73eea84e1cac{fill:#777;}.aadab6fb-a5b4-4eba-999e-8e4fd6866ace{fill:#606060;}.f6eb1575-ae01-47ab-ad6a-c4103e9ca428{fill:#cf103f;}</style><clipPath id="ee81ad2b-6961-4731-8520-c27413f771d1"><rect class="e8161e78-dcfa-4db2-b3a9-9cf402730300" width="276" height="250.8"/></clipPath></defs><g id="f654ae37-8cb2-4fc3-953d-29de76adb4b6" data-name="Ebene 2"><g id="b40e4342-e3b8-4030-858d-a2e45d7e18c4" data-name="Ebene 1"><g id="f0c634fb-b9aa-4efa-bf0d-6c3494e59625" data-name="e5e4ed0f-45d0-4d4e-a854-8cf6ceaf56d9"><g id="a98199bc-a44d-455c-88d1-99b67bed690a" data-name="e6ff3ac0-e4dd-45fd-afe2-eafb3c8a4b07"><g id="f114d72d-2f5b-4678-b044-ecf60f8228c2" data-name="f61759d6-ff85-4fa9-ac04-ea293058f82e"><g id="e1fc2da7-4f65-492b-baef-abcc02cac132" data-name="abb532b6-e789-4768-94a5-f8c419e482fc"><g id="f820b117-ee83-43bf-9d83-87622708ec5f" data-name="a843e8ea-1cc0-4848-9e19-59f75866c559"><g id="b6a68cd0-adab-4c33-8259-7460067da340" data-name="af742d4d-6f66-4d59-a668-995e2ddc2788"><g class="e7e48e1c-c9b7-44ca-9c16-2821dd03c7d3"><path class="baec8161-cf6b-43f2-913e-d04dde0ff4cf" d="M0,0H128c65.1,0,129.6,15.2,129.6,78.4,0,37.9-32.1,66.2-66.7,67.4l7.5,9.3c4.5,6.1,5.8,6.9,11.5,14.2L276,250.8H163.4L98.1,158.6h-4l.2,92.2H0ZM95.4,111.1l28.6.2c15,.2,32.8-11.3,30.8-29.8-2-19.2-16.9-26.9-51.7-26.1h-8Z"/></g><path class="eb541c26-addc-444d-b2b8-97c5cbc63b81" d="M260.7,148.7,234,133l18.3,2.6L209,96l-26.6,41.8-4.1,24.6-4-24.6L147.8,96l-43.3,39.6,18.4-2.6L96.2,148.6l27.7,13.1H111l32.4,18.9,9.2,33.2,21.3,12.3,4.7-4.2h-2l-9.3-13.3,1.8-3.1h19l1.8,3.1-9.3,13.3h-2l4.7,4.2,21.3-12.3,9.2-33.2,32.4-18.9H233.4Z"/><polygon class="a559781a-906a-4995-895b-2afd6942a76a" points="144.5 90.2 212.3 90.2 178.5 137 144.5 90.2"/><polygon class="eb541c26-addc-444d-b2b8-97c5cbc63b81" points="212.3 83.5 234.1 55.2 235.5 107.1 212.3 83.5"/><path class="eb541c26-addc-444d-b2b8-97c5cbc63b81" d="M167.1,208.8l1.8-3.1h9.5V162.3l-4.1-24.6L147.8,96l-43.3,39.6,18.4-2.6L96.2,148.6l27.7,13.1H111l32.4,18.9,9.2,33.2,21.3,12.3,4.7-4.2h-2Z"/><polygon class="eb541c26-addc-444d-b2b8-97c5cbc63b81" points="122.6 55.2 121.3 107.1 144.5 83.5 122.6 55.2"/><path class="b45d0cba-a50e-4bbe-9cc2-acad20209410" d="M260.6,148.6,233.9,133l18.3,2.6L208.8,95.9l-26.6,41.8-4.1,24.6-4-24.6L147.5,95.9l-43.3,39.6,18.4-2.6L96,148.6l27.7,13.1H110.9l32.4,18.9,9.2,33.2,21.3,12.3,4.7-4.2h-2l-9.3-13.3,1.8-3.1h19l1.8,3.1-9.3,13.3h-2l4.7,4.2,21.3-12.3,9.2-33.2,32.4-18.9H233.3Z"/><polygon class="e7fa9458-bb38-4aad-ba6b-6c1f52b78e84" points="144.4 83.5 212.2 83.5 178.4 130.3 144.4 83.5"/><polygon class="b45d0cba-a50e-4bbe-9cc2-acad20209410" points="212.2 83.5 234.1 55.2 235.4 107.1 212.2 83.5"/><path class="b45d0cba-a50e-4bbe-9cc2-acad20209410" d="M167,208.8l1.8-3.1h9.5V162.3l-4.1-24.6L147.7,95.9l-43.3,39.6,18.4-2.6L96,148.6l27.7,13.1H110.9l32.4,18.9,9.2,33.2,21.3,12.3,4.7-4.2h-2Z"/><polygon class="b45d0cba-a50e-4bbe-9cc2-acad20209410" points="122.6 55.2 121.2 107.1 144.4 83.5 122.6 55.2"/><path class="fc91c3b7-0727-4f78-9cc6-a57a306e8d42" d="M188,158.6l9.8-8.9,7.9.9,9.3-10.9s-15.7,3.2-16.1,3.4S188,158.6,188,158.6Z"/><path class="fc91c3b7-0727-4f78-9cc6-a57a306e8d42" d="M157.9,143.1c-.4-.1-16.1-3.4-16.1-3.4l9.2,10.8,7.9-.9,9.8,8.9C168.8,158.6,158.3,143.3,157.9,143.1Z"/><path class="e8696a18-9d24-4a92-95c6-73eea84e1cac" d="M260.6,148.6,233.8,133l18.4,2.6L208.8,95.9l-26.6,41.8-4.1,24.6-4-24.6L147.5,95.9l-43.3,39.6,18.3-2.6L95.8,148.5l27.7,13.1H110.7l32.4,18.9,9.2,33.2L173.6,226l4.7-4.2h-2L167,208.5l1.8-3.1h19l1.8,3.1-9.2,13.3h-2l4.7,4.2,21.3-12.3,9.2-33.2L246,161.6H233Zm-102,1.1-7.9.9-9.2-10.9s15.7,3.2,16.1,3.4,10.9,15.5,10.9,15.5Zm47.1.9-7.9-.9-9.8,8.9s10.4-15.3,10.9-15.5,16.1-3.4,16.1-3.4Z"/><polygon class="e8696a18-9d24-4a92-95c6-73eea84e1cac" points="212.1 83.5 234 55.2 235.3 107.1 212.1 83.5"/><path class="e8161e78-dcfa-4db2-b3a9-9cf402730300" d="M188,158.6l9.8-8.9,7.9.9,9.3-10.9s-15.7,3.2-16.1,3.4S188,158.6,188,158.6Z"/><path class="aadab6fb-a5b4-4eba-999e-8e4fd6866ace" d="M166.9,208.8l1.8-3.1h9.5V162.3l-4.1-24.6L147.5,95.9l-43.3,39.6,18.3-2.6L95.8,148.5l27.7,13.1H110.7l32.4,18.9,9.2,33.2L173.6,226l4.7-4.2h-2Zm-16.2-58.2-9.2-10.9s15.7,3.2,16.1,3.4,10.9,15.5,10.9,15.5l-9.8-8.9Z"/><polygon class="aadab6fb-a5b4-4eba-999e-8e4fd6866ace" points="122.4 55.2 121.1 107.1 144.3 83.5 122.4 55.2"/><path class="f6eb1575-ae01-47ab-ad6a-c4103e9ca428" d="M153.8,144.3c-.1,0-4.2-1-4.2-1l2.4,3.2,2.1-.3,2.6,2.6C156.6,148.8,153.9,144.4,153.8,144.3Z"/></g></g></g></g></g></g></g></g></svg>