<?xml version="1.0" encoding="utf-8"?>
<!-- Generator: Adobe Illustrator 24.1.1, SVG Export Plug-In . SVG Version: 6.00 Build 0)  -->
<svg version="1.1" id="Ebene_1" xmlns="http://www.w3.org/2000/svg" xmlns:xlink="http://www.w3.org/1999/xlink" x="0px" y="0px"
	 viewBox="0 0 32 32" style="enable-background:new 0 0 32 32;" xml:space="preserve">
<style type="text/css">
	.st0{fill:#cf003d;}
</style>
<g id="ea0d1f8d-8e8d-4283-9afc-c398a483b857">
	<g id="a1737653-5f24-4fb7-af02-0692df2d2928">
		<path class="st0" d="M9.8,17.6c-0.2,0.9-0.7,1.8-1.4,2.4c-0.7,0.8-1.6,1.3-2.7,1.4l5.6,5.6h-0.5v5h12v-5h-3.5L9.8,17.6z M21.8,31
			h-10v-3.1h10V31z"/>
		<ellipse class="st0" cx="5" cy="16.2" rx="1.8" ry="1.8"/>
		<path class="st0" d="M9.5,16.2c0-0.1,0-0.3,0-0.4c-0.2-2.5-2.3-4.5-4.8-4.3c-2.5-0.1-4.6,1.8-4.7,4.3s1.8,4.6,4.2,4.8
			c0.3,0,0.6,0,0.9,0C7.5,20.4,9.4,18.5,9.5,16.2z M5,19.6c-1.8,0.1-3.4-1.3-3.5-3.2c-0.1-1.9,1.3-3.5,3.2-3.6c0.1,0,0.2,0,0.4,0
			c1.8-0.1,3.4,1.3,3.5,3.2c0.1,1.9-1.3,3.5-3.2,3.6C5.2,19.6,5.1,19.6,5,19.6z"/>
		<path class="st0" d="M31.8,3.1c-0.2-0.1-0.4-0.1-0.5,0c-0.1,0.1-0.1,0.1-0.2,0.2l-3.3,5.9L24,8.4l-2.4-4.3l1.3-3.1l6.8,0.4h0
			c0.1,0,0.2,0,0.2-0.1c0.2-0.1,0.3-0.3,0.3-0.4c0-0.1,0-0.3-0.1-0.4c-0.1-0.1-0.2-0.2-0.4-0.2L22.5,0c-0.2,0-0.4,0.1-0.5,0.3L21,3
			l0,0l-2.5,1.3l0.5,1L7.3,11.4c0,0,0.9,0,2.1,2s0.7,2.9,0.7,2.9l11.6-6.2l0.5,1l2.2-1.1l0.5-0.2l-0.1-0.1l3.1,0.6h0.1
			c0.2,0,0.4-0.1,0.5-0.3l3.5-6.2C32.1,3.5,32,3.2,31.8,3.1z"/>
	</g>
</g>
</svg>
