<svg xmlns="http://www.w3.org/2000/svg" viewBox="0 0 31.85 32">
<defs><style>.a015720b-cdc7-4fd9-a0f4-61f53fabc753{fill:#cf103f;}</style>
    <style>.a015720b-cdc7-4fd9-a0f4-555111222{fill:#b2B2B2;}</style>
</defs>
<g id="fe4aa831-51ae-4bc2-a99b-8cfa7798b176" data-name="Ebene 2">
    <g id="ef71089e-21c3-4224-817e-5dd7fd4ae31b" data-name="Capa 1" class="a015720b-cdc7-4fd9-a0f4-555111222">
        <path d="M30,8.58V4.71a.31.31,0,0,0,0-.1C29.68,1.61,22.52,0,15.85,0S2,1.61,1.76,4.6a.41.41,0,0,0,0,.11V8.58a.42.42,0,0,0,.14.33l10.24,8.33V31.61a.46.46,0,0,0,.12.31.29.29,0,0,0,.18.08.15.15,0,0,0,.09,0l6.83-2.71a.39.39,0,0,0,.22-.37V17.24L29.81,8.91A.42.42,0,0,0,30,8.58Zm-2.9-5.3A25.31,25.31,0,0,1,24,4.06l-1.42.22a52.74,52.74,0,0,1-5.69.29C9.92,4.57,6.29,3.5,6.29,2.93S9.92,1.29,16.86,1.29,27.43,2.36,27.43,2.93C27.43,3,27.32,3.14,27.05,3.28Z"/>
        <rect class="a015720b-cdc7-4fd9-a0f4-61f53fabc753" x="13.86" y="-4.41" width="4.12" height="40.92" transform="translate(-6.68 15.96) rotate(-45)"/>
    </g>
</g>
</svg>