<svg xmlns="http://www.w3.org/2000/svg" viewBox="0 0 64 64"><defs><style>.bd8d2374-a796-4aa3-8dce-5ce732079fc0{fill:#cf103f;}.f4824207-ccbd-4ca9-8dbe-719a49a432f4{fill:#1863ad;}</style></defs><g id="ae41c1e9-8243-4270-8acb-8153224a9a45" data-name="Ebene 2"><g id="b92ae513-af34-4103-8f65-291156e61962" data-name="Ebene 1"><path class="bd8d2374-a796-4aa3-8dce-5ce732079fc0" d="M0,0H16.74V8.85H0Z"/><path class="f4824207-ccbd-4ca9-8dbe-719a49a432f4" d="M23.42,8.89V.13H40.23V8.89Z"/><path class="f4824207-ccbd-4ca9-8dbe-719a49a432f4" d="M64,8.92H47.27V.07H64Z"/><path class="bd8d2374-a796-4aa3-8dce-5ce732079fc0" d="M29,18.11v8.76H17.87V18.11Z"/><path class="f4824207-ccbd-4ca9-8dbe-719a49a432f4" d="M52.07,18.05v8.79H41.46V18.05Z"/><path class="f4824207-ccbd-4ca9-8dbe-719a49a432f4" d="M5.94,26.9H0V18.09H5.94Z"/><path class="f4824207-ccbd-4ca9-8dbe-719a49a432f4" d="M58.6,45.49H53.18V36.08H58.6Z"/><path class="bd8d2374-a796-4aa3-8dce-5ce732079fc0" d="M35.27,54.56h5.4V64h-5.4Z"/><path class="f4824207-ccbd-4ca9-8dbe-719a49a432f4" d="M7.09,36H12v9.46H7.09Z"/><path class="bd8d2374-a796-4aa3-8dce-5ce732079fc0" d="M35.16,36.06v9.3h-5v-9.3Z"/><path class="f4824207-ccbd-4ca9-8dbe-719a49a432f4" d="M17.15,64h-5V54.59h5Z"/><path class="f4824207-ccbd-4ca9-8dbe-719a49a432f4" d="M64,64H59V54.59h5Z"/></g></g></svg>