<svg xmlns="http://www.w3.org/2000/svg" viewBox="0 0 32 32"><defs>
    <style>.f238aa70-9212-421c-beb5-31c22f15daea{fill:#C2C2C2;}
            .a2272ea1-e9c5-4bbd-9231-59a040cd84f5{fill:#909090;}
    </style></defs>
<g id="fc830a96-4ea7-45ec-845d-80bbdfa95d63" data-name="Ebene 2">
    <g id="ab359397-cf28-446e-b0ca-641bd6362de4" data-name="Ebene 1">
    <g id="a3c5d036-da11-449c-bdda-53e41b1b2a0e" data-name="b01aa33a-b73e-4115-9224-03e9bd9d0fcf">
        <path class="f238aa70-9212-421c-beb5-31c22f15daea" d="M31.91,19.92,32,12.46l-3.73-.38a11,11,0,0,0-.68-1.7L30,7.52,24.81,2.18,21.9,4.55a12.49,12.49,0,0,0-1.68-.72L19.92.09,16,0v8.5h.09A7.47,7.47,0,0,1,16,23.46V32l3.54,0,.39-3.73a11.26,11.26,0,0,0,1.69-.68L24.48,30l5.34-5.22L27.45,21.9a12.49,12.49,0,0,0,.72-1.68Z"/>
        <path class="f238aa70-9212-421c-beb5-31c22f15daea" d="M15.91,23.47A7.47,7.47,0,0,1,16,8.54V0L12.46,0l-.39,3.73a11.26,11.26,0,0,0-1.69.68L7.52,2,2.18,7.19,4.55,10.1a12.49,12.49,0,0,0-.72,1.68l-3.74.3L0,19.54l3.73.39a11.26,11.26,0,0,0,.68,1.69L2,24.48l5.21,5.34,2.91-2.37a12.49,12.49,0,0,0,1.68.72l.3,3.74L16,32v-8.5Z"/><g id="b0fb702f-4e63-4cfd-8ee5-30a8bba3ba3b" data-name="ac3d4bf7-c819-4960-96b0-6b80c12817ac">
        <polygon class="a2272ea1-e9c5-4bbd-9231-59a040cd84f5" points="17.95 26.76 8 14.99 0 26.76 0 20.07 8 8.49 17.89 20.44 32 5.28 32 10.79 17.95 26.76"/>
</g></g></g></g></svg>