<svg xmlns="http://www.w3.org/2000/svg" viewBox="0 0 64 64"><defs><style>.aacd597d-66c7-4e7a-8c3e-957308e2cfdc{fill:#1863ad;}.b71c81c3-494f-453f-b91f-14fb5628b47d{fill:#010101;}.a79daf06-76c1-4206-b037-a799aade95d2{fill:#a9a9a9;}</style></defs><g id="b634d1b7-ec40-4aa7-a0ea-6280813d5cec" data-name="Ebene 2"><g id="be2d02bb-1b31-4995-86e0-644028d4ae4a" data-name="Ebene 1"><path class="aacd597d-66c7-4e7a-8c3e-957308e2cfdc" d="M0,0H16.74V8.85H0Z"/><path class="aacd597d-66c7-4e7a-8c3e-957308e2cfdc" d="M23.42,8.89V.13H40.23V8.89Z"/><path class="aacd597d-66c7-4e7a-8c3e-957308e2cfdc" d="M64,8.92H47.27V.07H64Z"/><path class="aacd597d-66c7-4e7a-8c3e-957308e2cfdc" d="M52.07,18.05v8.79H41.46V18.05Z"/><path class="aacd597d-66c7-4e7a-8c3e-957308e2cfdc" d="M5.94,26.9H0V18.09H5.94Z"/><path class="aacd597d-66c7-4e7a-8c3e-957308e2cfdc" d="M58.6,45.49H53.18V36.08H58.6Z"/><path class="aacd597d-66c7-4e7a-8c3e-957308e2cfdc" d="M35.27,54.56h5.4V64h-5.4Z"/><path class="aacd597d-66c7-4e7a-8c3e-957308e2cfdc" d="M7.09,36H12v9.46H7.09Z"/><path class="aacd597d-66c7-4e7a-8c3e-957308e2cfdc" d="M35.16,36.06v9.3h-5v-9.3Z"/><path class="aacd597d-66c7-4e7a-8c3e-957308e2cfdc" d="M17.15,64h-5V54.59h5Z"/><path class="aacd597d-66c7-4e7a-8c3e-957308e2cfdc" d="M64,64H59V54.59h5Z"/><g id="b5e51e80-3fd7-4445-bec5-6d0f396c8385" data-name="search"><path class="b71c81c3-494f-453f-b91f-14fb5628b47d" d="M45.71,40.23H42.79l-1.1-1.1a22.87,22.87,0,0,0,5.85-15.36A23.77,23.77,0,1,0,23.77,47.54a22.87,22.87,0,0,0,15.36-5.85l1.1,1.1v2.92L58.51,64,64,58.51Zm-21.94,0A16.46,16.46,0,1,1,40.23,23.77,16.4,16.4,0,0,1,23.77,40.23Z"/></g><path class="a79daf06-76c1-4206-b037-a799aade95d2" d="M35.66,13.59a33.78,33.78,0,0,1,0,19.34,68.08,68.08,0,0,1-24.57,0,33.76,33.76,0,0,1,0-19.34A68.52,68.52,0,0,1,35.66,13.59Z"/><path class="aacd597d-66c7-4e7a-8c3e-957308e2cfdc" d="M11.64,18.29c.13-1,.28-2,.5-3A91.24,91.24,0,0,1,26.3,14.6c.05,1.09.09,2.15.12,3.29C21.54,17.8,16.72,17.92,11.64,18.29Z"/><path class="aacd597d-66c7-4e7a-8c3e-957308e2cfdc" d="M35.11,18.26C33,18.1,31,18,29,17.92c-.06-1.11-.14-2.16-.24-3.28,2,.12,3.89.29,5.88.54C34.8,16.18,35,17.16,35.11,18.26Z"/><path class="aacd597d-66c7-4e7a-8c3e-957308e2cfdc" d="M11.36,21.73c2.15-.05,4.19-.08,6.3-.1,0,1.09,0,2.14,0,3.28-2.08,0-4.16-.06-6.3-.11C11.32,23.79,11.31,22.8,11.36,21.73Z"/><path class="aacd597d-66c7-4e7a-8c3e-957308e2cfdc" d="M20.17,24.94c0-1.11,0-2.15,0-3.28,5,0,10.06,0,15.23.12,0,1,0,2,0,3C30.37,24.93,25.41,25,20.17,24.94Z"/><path class="aacd597d-66c7-4e7a-8c3e-957308e2cfdc" d="M12.19,31.56c-.21-1-.38-2-.52-3,4,.31,8,.47,12.13.45,0,1.09,0,2.16,0,3.31A88.53,88.53,0,0,1,12.19,31.56Z"/><path class="aacd597d-66c7-4e7a-8c3e-957308e2cfdc" d="M34.55,31.57c-2.78.36-5.49.58-8.27.67.06-1.12.1-2.19.14-3.32,2.88-.06,5.72-.2,8.66-.42C35,29.49,34.78,30.48,34.55,31.57Z"/></g></g></svg>