<?xml version="1.0" encoding="utf-8"?>
<!-- Generator: Adobe Illustrator 22.1.0, SVG Export Plug-In . SVG Version: 6.00 Build 0)  -->
<svg version="1.1" id="Ebene_1" xmlns="http://www.w3.org/2000/svg" xmlns:xlink="http://www.w3.org/1999/xlink" x="0px" y="0px"
	 viewBox="0 0 552.3 96.1" enable-background="new 0 0 552.3 96.1" xml:space="preserve">
<title>logo_RF_Suite</title>
<path fill="#FFFFFF" d="M72.4,93.8H44.2L22.9,60.3h-0.2v33.5H0V6.7h33.8c17.2,0,30.3,8.2,30.3,26.8c0,12-6.7,22.4-19.1,24.6
	L72.4,93.8z M22.6,45.8h2.2c7.4,0,15.7-1.4,15.7-10.9S32.2,24,24.8,24h-2.2V45.8z"/>
<path fill="#FFFFFF" d="M101.2,25.9v14.5h24.9v19.2h-24.9v34.2H78.5V6.7h50v19.2H101.2z"/>
<path fill="#FFFFFF" d="M141.7,40.6h19.4v18.7h-19.4V40.6z M141.7,75.1h19.4v18.7h-19.4V75.1z"/>
<path fill="#FFFFFF" d="M176.9,40.6h19.4v18.7h-19.4V40.6z M176.9,75.1h19.4v18.7h-19.4V75.1z"/>
<path fill="#FFFFFF" d="M259.7,29.1c-4.2-3.6-9.5-5.6-15-5.8c-4.2,0-9.7,2.4-9.7,7.3c0,5.1,6.1,7,10,8.3l5.8,1.7
	c12.1,3.6,21.5,9.7,21.5,23.8c0,8.7-2.1,17.6-9,23.4s-15.9,8.2-24.7,8.2c-11-0.1-21.7-3.5-30.7-9.9l9.7-18.3c5.7,5,12.4,9,20.1,9
	c5.3,0,11-2.7,11-8.8c0-6.3-8.9-8.5-13.8-9.9c-14.2-4-23.6-7.7-23.6-24.6c0-17.7,12.6-29.2,30-29.2c9.5,0.2,18.9,2.6,27.3,7.2
	L259.7,29.1z"/>
<path fill="#FFFFFF" d="M303.2,34.5v31.7c0,7.5,1.9,12.8,10.5,12.8s10.5-5.4,10.5-12.8V34.5h21v35.7c0,19.5-13.8,25.5-31.5,25.5
	s-31.5-6-31.5-25.5V34.5H303.2z"/>
<path fill="#FFFFFF" d="M381,11.8c0,6.5-5.3,11.8-11.8,11.8s-11.8-5.3-11.8-11.8c0-6.5,5.3-11.8,11.8-11.8C375.7,0,381,5.3,381,11.8
	z M379.7,93.8h-21V34.5h21V93.8z"/>
<path fill="#FFFFFF" d="M416.5,93.8h-21V51.9h-6.8V34.5h6.8V16.8h21v17.8h11.9v17.3h-11.9V93.8z"/>
<path fill="#FFFFFF" d="M496.1,67.7h-44.3c0,8.6,4.5,13.2,13.2,13.2c4.5,0,7.7-1.5,10-5.4h20.2c-3.3,14-16.6,20.3-30.1,20.3
	c-19.6,0-34.3-11.1-34.3-31.5c0-19.8,13.5-31.6,32.8-31.6c20.6,0,32.5,12.7,32.5,32.9L496.1,67.7z M476.5,55.6
	c-1-5.7-6.2-9.4-11.9-9.4c-6.1,0-11.2,3.2-12.5,9.4H476.5z"/>
<path fill="#FFFFFF" d="M499,30c0-14.7,11.9-26.7,26.7-26.7s26.7,11.9,26.7,26.7s-11.9,26.7-26.7,26.7l0,0
	c-14.7,0-26.6-11.8-26.7-26.5C498.9,30.1,498.9,30.1,499,30z M546,30c0-12-8.9-20.5-20.3-20.5C514,9.6,505.3,18,505.3,30
	s8.7,20.3,20.3,20.3C537.1,50.4,546,41.9,546,30L546,30z M538.4,43.6h-6.7l-6.2-11.7h-4.3v11.7H515V15.8h13.5
	c6.4,0,10.8,1.1,10.8,8.5c0,5.1-2.6,7.2-7.5,7.5L538.4,43.6z M528.6,27.7c3.1,0,4.8-0.7,4.8-4.2c0-2.8-3.6-2.8-6.3-2.8h-6v7H528.6z"
	/>
</svg>
